# Blender3D v249 OBJ File: 
# www.blender3d.org
v -0.115010 -0.591813 0.107518
v -0.115010 -0.591813 0.780656
v -0.788149 -0.591813 0.780656
v -0.788148 -0.591813 0.107517
v -0.115009 0.081326 0.107518
v -0.115010 0.081326 0.780657
v -0.788149 0.081326 0.780656
v -0.788148 0.081326 0.107517
v 0.641003 0.486166 0.220625
v 0.641003 0.486166 0.893764
v -0.032136 0.486166 0.893764
v -0.032135 0.486166 0.220625
v 0.641004 1.159305 0.220625
v 0.641003 1.159305 0.893764
v -0.032136 1.159305 0.893764
v -0.032136 1.159305 0.220625
v -0.160968 0.576691 -0.339146
v -0.160968 0.576691 0.333993
v -0.834107 0.576691 0.333993
v -0.834107 0.576691 -0.339146
v -0.160968 1.249830 -0.339145
v -0.160968 1.249830 0.333994
v -0.834107 1.249830 0.333993
v -0.834107 1.249830 -0.339146
v 0.432938 -0.130719 0.344948
v 0.432938 -0.130719 1.018086
v -0.240201 -0.130719 1.018086
v -0.240201 -0.130719 0.344948
v 0.432938 0.542420 0.344948
v 0.432937 0.542420 1.018087
v -0.240201 0.542420 1.018086
v -0.240201 0.542420 0.344948
v -0.338225 -0.188547 0.085669
v -0.338225 -0.188547 0.758808
v -1.011364 -0.188547 0.758808
v -1.011364 -0.188547 0.085669
v -0.338225 0.484592 0.085669
v -0.338225 0.484592 0.758808
v -1.011364 0.484592 0.758808
v -1.011364 0.484592 0.085669
v 0.173456 0.314972 -0.041949
v 0.173456 0.314972 0.631190
v -0.499683 0.314972 0.631190
v -0.499683 0.314972 -0.041949
v 0.173456 0.988111 -0.041948
v 0.173455 0.988111 0.631190
v -0.499683 0.988111 0.631190
v -0.499683 0.988111 -0.041949
vn 0.000000 0.000000 -1.000000
vn -1.000000 -0.000000 -0.000000
vn -0.000000 -0.000000 1.000000
vn -0.000001 0.000000 1.000000
vn 1.000000 -0.000000 0.000000
vn 1.000000 0.000000 0.000001
vn 0.000000 1.000000 0.000000
vn 0.000000 -1.000000 0.000000
usemtl Material
s off
f 45//1 41//1 44//1
f 45//1 44//1 48//1
f 43//2 47//2 48//2
f 43//2 48//2 44//2
f 42//3 46//3 43//3
f 46//4 47//4 43//4
f 41//5 45//5 42//5
f 45//6 46//6 42//6
f 45//7 48//7 46//7
f 48//7 47//7 46//7
f 41//8 42//8 43//8
f 41//8 43//8 44//8
f 37//1 33//1 36//1
f 37//1 36//1 40//1
f 35//2 39//2 40//2
f 35//2 40//2 36//2
f 34//3 38//3 35//3
f 38//4 39//4 35//4
f 33//5 37//5 34//5
f 37//6 38//6 34//6
f 37//7 40//7 39//7
f 37//7 39//7 38//7
f 33//8 34//8 35//8
f 33//8 35//8 36//8
f 29//1 25//1 28//1
f 29//1 28//1 32//1
f 27//2 31//2 32//2
f 27//2 32//2 28//2
f 26//3 30//3 27//3
f 30//4 31//4 27//4
f 25//5 29//5 26//5
f 29//6 30//6 26//6
f 29//7 32//7 30//7
f 32//7 31//7 30//7
f 25//8 26//8 27//8
f 25//8 27//8 28//8
f 21//1 17//1 20//1
f 21//1 20//1 24//1
f 19//2 23//2 24//2
f 19//2 24//2 20//2
f 18//3 22//3 19//3
f 22//3 23//3 19//3
f 17//5 21//5 18//5
f 21//6 22//6 18//6
f 21//7 24//7 22//7
f 24//7 23//7 22//7
f 17//8 18//8 19//8
f 17//8 19//8 20//8
f 13//1 9//1 12//1
f 13//1 12//1 16//1
f 11//2 15//2 16//2
f 11//2 16//2 12//2
f 10//3 14//3 11//3
f 14//4 15//4 11//4
f 9//5 13//5 10//5
f 13//6 14//6 10//6
f 13//7 16//7 14//7
f 16//7 15//7 14//7
f 9//8 10//8 11//8
f 9//8 11//8 12//8
f 5//1 1//1 4//1
f 5//1 4//1 8//1
f 3//2 7//2 8//2
f 3//2 8//2 4//2
f 2//3 6//3 3//3
f 6//4 7//4 3//4
f 1//5 5//5 2//5
f 5//6 6//6 2//6
f 5//7 8//7 6//7
f 8//7 7//7 6//7
f 1//8 2//8 3//8
f 1//8 3//8 4//8
